30 1
0  267 270 271  -1
1  267 252 270  -1
2  298 300 301  -1
3  298 251 300  -1
4  274 275 276  -1
5  274 254 275  -1
6  228 227 229  -1
7  228 199 227  -1
8  224 225 226  -1
9  224 216 225  -1
10  275 277 278  -1
11  275 254 277  -1
12  277 255 279  -1
13  277 254 255  -1
14  264 265 266  -1
15  264 251 265  -1
16  293 294 295  -1
17  293 250 294  -1
18  292 293 296  -1
19  292 248 293  -1
20  300 302 303  -1
21  300 251 302  -1
22  251 268 265  -1
23  265 268 269  -1
24  221 244 245  -1
25  221 219 244  -1
26  255 256 257  -1
27  255 240 256  -1
28  297 298 299  -1
29  297 251 298  -1
