209  3  0  0
   0    -24  -24  0
   1    0  -24  -28.800000000000001
   2    24  -24  0
   3    -24  0  28.800000000000001
   4    0  0  0
   5    24  0  28.800000000000001
   6    -24  24  0
   7    0  24  -28.800000000000001
   8    24  24  0
   9    -1.0693949224410397  -32.143314618683583  -4.3700561439492489
  10    -0.41999394097677922  -34.032235412591653  -7.8971285985581741
  11    -2.9420910152566648e-15  -34.047520819784488  -8.3700409997715504
  12    0.27807244369012107  -33.868702025909769  -8.3999522815553238
  13    0.42994385605074825  -33.771038760819607  -8.4162885590725605
  14    0.42994385605074825  -32.143314618683583  -5.9765185282169178
  15    -3.5734615909677911  -33.905798334535774  -4.3700561439492489
  16    2.9330976219608482  -33.736510282884367  -5.4827119451154305
  17    3.8637233504210977  -33.73449631256333  -4.3700561439492489
  18    1.7774022211232685  -32.143314618683583  -4.3700561439492489
  19    1.878643233492038  -33.751055416140588  -6.7184821069903631
  20    0.42994385605074825  -30.805773214242478  -4.3700561439492489
  21    0.42994385605074825  30.805773214242482  -4.3700561439492489
  22    0.42994385605074825  33.003202330785086  -7.030265093365454
  23    -2.0585859147951253  33.003202330785086  -4.3700561439492489
  24    2.6742973979907951  33.003202330785086  -4.3700561439492489
  25    -1.7439151217666811  34.026481923977244  -6.3201219417929151
  26    -3.4754386281718181  33.963647951923555  -4.3700561439492489
  27    0.42994385605074825  33.824642766203908  -8.3072937481244864
  28    3.6637359812630166e-15  34.095274256859291  -8.2729423443861148
  29    2.156085418466827  33.817565696431167  -6.2503139150964353
  30    1.0168135447637618  33.822236638094282  -7.6079425821584516
  31    3.7570726361391298  33.797437717713343  -4.3700561439492489
  32    3.0991649151331018  33.805709084567823  -5.1427269632190384
  33    -8.5635504212749165  -32.143314618683583  3.7732584747343338
  34    -8.2701876152423033  -33.756935894294053  0.96332812335533502
  35    -7.7133707626328345  -33.758620125897423  0.29857250448416472
  36    -7.7133707626328345  -32.143314618683583  2.7621938720568115
  37    -10.672906513768693  -33.720870815514054  3.7732584747343338
  38    8.573258474734331  -32.161469782972468  3.7732584747343338
  39    8.573258474734331  -33.737742835346808  1.2879872682197071
  40    8.5535807760615068  -32.143314618683583  3.7732584747343338
  41    10.708057221251714  -33.700126135688002  3.7732584747343338
  42    -7.7133707626328345  -31.303104605254919  3.7732584747343338
  43    0.42994385605074825  -24.01967769867283  3.7732584747343338
  44    0.42994385605074825  24.01967769867283  3.7732584747343338
  45    0.42994385605074825  24.859887712101497  2.765006458619931
  46    -0.50946208196103615  24.859887712101497  3.7732584747343338
  47    1.270153869479417  24.859887712101497  3.7732584747343338
  48    -7.7133707626328345  31.303104605254916  3.7732584747343338
  49    -7.7133707626328345  33.003202330785086  1.7048889732107897
  50    -9.4623656004603465  33.003202330785086  3.7732584747343338
  51    8.573258474734331  32.162992317356412  3.7732584747343338
  52    8.573258474734331  33.003202330785086  2.7390590965885764
  53    9.4512882400959448  33.003202330785086  3.7732584747343338
  54    -9.1193762854701426  33.796110116721124  2.0620087798971327
  55    -10.556932068309774  33.789314750538985  3.7732584747343338
  56    -7.7133707626328345  33.816417680918342  0.41609419969336425
  57    8.573258474734331  33.804180610307689  1.4230774106401627
  58    9.2896297960873344  33.799867085061848  2.2739521615972276
  59    10.574561238080801  33.778910650346248  3.7732584747343338
  60    10.320702023362195  33.783050936657517  3.4770459992382521
  61    -14.311687918118825  -33.688312081881172  8.0735934015676438
  62    -14.186654981493012  -32.581163572480335  9.6564052506544655
  63    -14.137207648974474  -32.143314618683583  10.282366904664933
  64    8.573258474734331  -32.143314618683583  3.7968717131417224
  65    14.211751945804302  -32.736463205515847  9.4190151969122446
  66    14.174961446836509  -32.143314618683583  10.205600849012134
  67    14.211929963808211  -32.742065924818128  9.4119299638082143
  68    14.332954851107047  -33.667045148892953  8.0558709574107983
  69    14.271823541413898  -33.199825615219481  8.7408347275283571
  70    -7.7133707626328345  -24.517009089685267  11.916573093417909
  71    -14.138066678086883  -30.780020550948969  11.916573093417909
  72    -14.138066678086881  -31.993116947923731  10.460857417048192
  73    -7.1353231303813764  -24  11.916573093417909
  74    0.42994385605074825  -24  3.7968717131417296
  75    8.573258474734331  -25.376896801786771  11.916573093417909
  76    7.1963616729475621  -24  11.916573093417909
  77    14.174961446836509  -30.717504415012105  11.916573093417909
  78    0.42994385605074825  -17.233582183103181  11.916573093417909
  79    -7.7133707626328345  24.517009089685267  11.916573093417909
  80    -7.7133707626328345  24.859887712101497  11.505118746518432
  81    -8.0562493850490657  24.859887712101497  11.916573093417909
  82    0.42994385605074825  17.233582183103184  11.916573093417909
  83    8.0562493850490604  24.859887712101497  11.916573093417909
  84    -14.15935569082477  33.003202330785086  9.2054672983808636
  85    -14.154944942984747  32.557426215807844  9.7493671569616005
  86    -14.155737093382262  32.167535920532487  10.215624805483754
  87    -14.154824113905651  30.751626006922724  11.916573093417909
  88    8.573258474734331  25.376896801786767  11.916573093417909
  89    14.200519338326529  33.003202330785086  9.1217678817939465
  90    14.202399835790771  32.746258781017261  9.4262764633380485
  91    14.202399835790771  30.671011589284042  11.916573093417909
  92    -14.254802222812227  33.745197777187769  8.1209981476564757
  93    -14.228668749520935  33.542037769411131  8.4179282193474094
  94    14.296061080890615  33.703938919109383  8.0866157659244831
  95    -14.108840467488331  -24.216556251514273  19.852156880956596
  96    -14.061089958991115  -24  20.059887712101499
  97    -14.109358020656186  -24.04257026047021  20.059887712101499
  98    -14.108658208522684  -24.262536319511881  19.797351392589619
  99    -14.138066678086883  -30.687598942313866  12.027479023780032
 100    -7.7133707626328345  -24  12.536984001040231
 101    8.573258474734331  -24  13.568849255562032
 102    14.137454738058658  -24  20.053842032614064
 103    14.219360517340188  -25.514951201416981  18.06935883970791
 104    14.209264666477438  -29.63600619174311  13.144621081404145
 105    14.209264666477438  -30.059949649143931  12.635888932523162
 106    -7.7133707626328345  -17.730913574115611  20.059887712101499
 107    -5.617869560118149  -15.856685381316417  20.059887712101499
 108    0.42994385605074825  -15.856685381316417  13.568849255562025
 109    8.573258474734331  -18.590801286217108  20.059887712101499
 110    5.8391425698336441  -15.856685381316417  20.059887712101499
 111    14.137454738058658  -23.994961933760472  20.059887712101499
 112    0.42994385605074825  -10.361867326774785  20.059887712101499
 113    0.42994385605074825  10.419082912626232  20.059887712101499
 114    0.42994385605074825  16.716573093417907  12.53698400104024
 115    -6.579276363013963  16.716573093417907  20.059887712101499
 116    6.6990302819351308  16.716573093417907  20.059887712101499
 117    -7.7133707626328345  17.730913574115611  20.059887712101499
 118    -14.125767790900086  24.014764816445826  20.059887712101499
 119    -14.125447921205961  24.859887712101497  19.046390639026079
 120    8.573258474734331  18.590801286217108  20.059887712101499
 121    8.573258474734331  24.859887712101497  12.536984001040233
 122    14.160359211057866  23.95615157673403  20.059887712101499
 123    14.160359211057866  24.859887712101497  18.97540434966054
 124    -14.15369818288811  25.448975222214035  18.282043428137335
 125    14.203563918217851  30.490193155585025  12.131188246255
 126    14.202399835790771  30.512905700705222  12.106300159712497
 127    -14.109254120429672  -24  20.111183288459667
 128    -14.129925674772291  -19.623460375431186  25.32099867744558
 129    -12.643748045546282  -15.856685381316417  28.203202330785089
 130    -14.138448186941588  -17.207183074250288  28.203202330785089
 131    -7.7133707626328345  -15.856685381316417  22.308961543460534
 132    8.573258474734331  -15.856685381316417  23.340826797982324
 133    14.170487548397455  -17.152894156227852  28.203202330785089
 134    12.685016087221079  -15.856685381316417  28.203202330785089
 135    14.225785991269031  -18.298568770935972  26.715952625963141
 136    14.216339078313728  -21.49976598489582  22.893724692220434
 137    14.21633907831373  -22.339218948064659  21.886381136417832
 138    -7.7133707626328345  -10.888280324684722  28.203202330785089
 139    -4.5715005835159461  -7.7133707626328345  28.203202330785089
 140    0.42994385605074825  -7.7133707626328345  22.852123879143818
 141    8.573258474734331  -11.782180903425949  28.203202330785089
 142    4.9294454510258028  -7.7133707626328345  28.203202330785089
 143    0.42994385605074825  0.42994385605074825  25.947377205945557
 144    -1.6718752056980883  0.42994385605074825  28.203202330785089
 145    2.3098692720495331  0.42994385605074825  28.203202330785089
 146    0.42994385605074825  8.573258474734331  22.075648881300058
 147    -5.3002447649617483  8.573258474734331  28.203202330785089
 148    5.5899477762862322  8.573258474734331  28.203202330785089
 149    -7.7133707626328345  10.931110179950121  28.203202330785089
 150    -7.7133707626328345  16.716573093417907  21.277096288938747
 151    -13.535804643865262  16.716573093417907  28.203202330785089
 152    8.573258474734331  11.803478635930304  28.203202330785089
 153    8.573258474734331  16.716573093417907  22.308961543460541
 154    13.601236500248163  16.716573093417907  28.203202330785089
 155    -14.168074970503492  18.564157477781176  26.514591919972162
 156    -14.120750397130024  17.237170995875445  28.203202330785089
 157    14.150143587790087  17.187365867256997  28.203202330785089
 158    14.147559471229929  18.144630609216506  27.059739010772667
 159    14.21217127750961  22.355485896193194  21.875335326965292
 160    14.160359211057866  23.685967433672364  20.384108683775498
 161    -14.134564050566228  -15.856685381316417  29.831697306268968
 162    14.167333509109561  -15.856685381316417  29.765066073897525
 163    -14.214852274082904  -12.616655367179558  33.55648060208263
 164    -11.730191649703531  -7.7133707626328345  36.346516949468665
 165    -14.228809490016893  -10.267975350691934  36.346516949468665
 166    -7.7133707626328345  -7.7133707626328345  31.583602080694941
 167    8.573258474734331  -7.7133707626328345  32.607602596540055
 168    14.279504430228117  -10.182075590889582  36.346516949468665
 169    11.75234662495625  -7.7133707626328345  36.346516949468665
 170    14.280647278747288  -11.112163137899598  35.228088101067669
 171    14.268156355824296  -13.408268643722806  32.49815970402323
 172    14.222593147119788  -14.608823431386817  31.150139149858919
 173    -7.7133707626328345  0.42994385605074825  34.687521274293772
 174    -9.0993304989785031  0.42994385605074825  36.346516949468665
 175    8.573258474734331  0.42994385605074825  35.719482776672294
 176    9.1010035611925915  0.42994385605074825  36.346516949468665
 177    -7.7133707626328345  8.573258474734331  30.800685184955078
 178    -12.397614414387876  8.573258474734331  36.346516949468665
 179    8.573258474734331  8.573258474734331  31.813902581613533
 180    12.433339016332791  8.573258474734331  36.346516949468665
 181    -14.11940247620052  16.716573093417907  28.83066058629079
 182    -14.124239723623198  15.510714858439041  30.267854731839318
 183    -14.179767909836407  11.748504810008875  34.669599477988655
 184    -14.191990898548934  10.330362408457088  36.346516949468665
 185    14.234488634928148  10.25835235514786  36.346516949468665
 186    14.228607989911627  11.986436417827884  34.284773385786231
 187    14.243863385308771  14.243863385308771  31.544841720834974
 188    14.149114704267525  16.716573093417907  28.770245722554538
 189    -14.463500164137416  -7.7133707626328345  38.934838084427852
 190    14.509048423681136  -7.7133707626328345  38.842223290022289
 191    -16.809818432508745  -0.52318919514157969  42.792208819728991
 192    -15.856685381316417  0.42994385605074825  42.760201301118748
 193    -16.748060435824957  0.42994385605074825  43.029677819895035
 194    -17.018423517946292  4.2743586448068527e-15  42.99587218017588
 195    -15.856685381316417  -3.0598776249307242  41.686219908073085
 196    -14.833430582807912  -6.4802424299605264  39.662400232337944
 197    16.683262058096865  0.37530045035266291  43.227006608113179
 198    16.655481932694681  0.42994385605074825  43.217920776259923
 199    16.716573093417907  -0.51548822958402951  42.991048834549424
 200    16.716573093417907  0.30998582975172317  43.237651714348189
 201    16.918646269326988  8.8817841970012523e-16  43.198752585701797
 202    -16.666633362095435  0.64912129059549328  42.93223328169136
 203    -16.507474911571567  1.0807333863058977  42.737920949570743
 204    -15.856685381316417  2.9861171226090746  41.774732510859067
 205    -14.32959033051225  8.573258474734331  38.175256158277229
 206    14.912951838514497  6.6446495546170192  39.303418462813433
 207    14.368200512758206  8.573258474734331  38.096748787710453
 208    -17.598359181175052  1.5491768828631862  23.812589293813048
# Generated by pa11250.2555024064zQ 
